# xmcd
#
# Track frame offsets: 
#        150
#        16035
#        30290
#        43982
#        58552
#        69432
#        82602
#        99900
#        117075
#        131267
#
# Disc length: 1992 seconds
#
# Revision: 3
# Processed by: cddbd v1.5PL3 Copyright (c) Steve Scherf et al.
# Submitted via: ExactAudioCopy v0.95a3
#
DISCID=6707c60a
DTITLE=Suzy Bogguss - Somewhere Between
DYEAR=1989
DGENRE=
TTITLE0=Somewhere Between
TTITLE1=Guilty As They Come
TTITLE2=I'm At Home On The Range
TTITLE3=My Sweet Love Ain't Around
TTITLE4=Handyman's Dream
TTITLE5=I Want To Be A Cowboy's Sweetheart
TTITLE6=Cross My Broken Heart
TTITLE7=Take It Like A Man
TTITLE8=Hopeless Romantic
TTITLE9=Night Rider's Lament
EXTD=
EXTT0=
EXTT1=
EXTT2=
EXTT3=
EXTT4=
EXTT5=
EXTT6=
EXTT7=
EXTT8=
EXTT9=
PLAYORDER=
